<svg width="430" height="93" viewBox="0 0 430 93" fill="none" xmlns="http://www.w3.org/2000/svg">
<g clip-path="url(#clip0_1045_34)">
<path d="M49.9437 35.1377V55.7077H9.61803V35.1377H0V83.5807H59.5672V35.1377H49.9437ZM9.61803 73.88V65.4084H49.9437V73.88H9.61803Z" fill="#162138"/>
<path d="M100.456 55.7077H82.9696V35.1377H73.3516V55.7077V65.4084V83.5808H82.9696V65.4084H100.456V55.7077Z" fill="#162138"/>
<path d="M200.349 46.04H127.484V18.1724H190.731V9.70076H127.484V0H200.349V27.8732H137.102V36.3393H200.349V46.04Z" fill="#162138"/>
<path d="M205.058 92.973H122.777V72.0723H132.395V83.2722H205.058V92.973Z" fill="#162138"/>
<path d="M209.354 54.5061H118.734V64.2069H209.354V54.5061Z" fill="#162138"/>
<path d="M233.446 85.2014L225.566 79.6399L257.488 33.6716L289.404 79.6399L281.525 85.2014L257.488 50.5817L233.446 85.2014Z" fill="#162138"/>
<path d="M328.466 53.9219V44.2212H310.985V34.8511H301.367V44.2212V53.9219V64.7967V74.4975V83.581H310.985V74.4975H328.466V64.7967H310.985V53.9219H328.466Z" fill="#162138"/>
<path d="M400.538 85.2014L376.496 50.5817L352.459 85.2014L344.574 79.6399L376.496 33.6716L408.417 79.6399L400.538 85.2014Z" fill="#162138"/>
<path d="M430.001 34.8511H420.383V83.5754H430.001V34.8511Z" fill="#162138"/>
</g>
<defs>
<clipPath id="clip0_1045_34">
<rect width="430" height="92.973" fill="#162138"/>
</clipPath>
</defs>
</svg>
